<svg width="136" height="136" viewBox="0 0 136 136" fill="none" xmlns="http://www.w3.org/2000/svg">
<path d="M67.8823 0L84.8628 16.9805L16.9806 84.8628L1.60544e-05 67.8822L67.8823 0Z" fill="#CC241D"/>
<path d="M118.784 50.9017L135.765 67.8823L67.8823 135.765L50.9017 118.784L118.784 50.9017Z" fill="#458588"/>
<path d="M101.803 33.9212L118.784 50.9017L50.9017 118.784L33.9212 101.803L101.803 33.9212Z" fill="#98971A"/>
<path d="M84.8229 16.9406L101.803 33.9212L33.9212 101.803L16.9407 84.8229L84.8229 16.9406Z" fill="#D79921"/>
<path d="M57.5925 92.616H47.2245C46.2005 92.616 45.4538 92.3813 44.9845 91.912C44.5152 91.4427 44.2805 90.696 44.2805 89.672V58.888H35.5125C34.4885 58.888 33.7418 58.6533 33.2725 58.184C32.8032 57.7147 32.5685 56.968 32.5685 55.944V48.2C32.5685 47.6453 32.6325 47.176 32.7605 46.792C32.9312 46.408 33.1658 46.088 33.4645 45.832L41.7205 38.856C41.9338 38.6853 42.2112 38.5573 42.5525 38.472C42.9365 38.344 43.3418 38.28 43.7685 38.28H77.5605C78.5845 38.28 79.3312 38.5147 79.8005 38.984C80.2698 39.4533 80.5045 40.2 80.5045 41.224V48.968C80.5045 49.5227 80.4192 49.992 80.2485 50.376C80.1205 50.76 79.9072 51.08 79.6085 51.336L71.2885 58.248C71.1178 58.4187 70.8405 58.568 70.4565 58.696C70.1152 58.824 69.7312 58.888 69.3045 58.888H68.7925V82.696C68.7925 83.2507 68.7072 83.72 68.5365 84.104C68.4085 84.488 68.1952 84.808 67.8965 85.064L59.5765 91.976C59.4058 92.1467 59.1285 92.296 58.7445 92.424C58.4032 92.552 58.0192 92.616 57.5925 92.616ZM65.8485 85C66.6592 85 67.2352 84.8293 67.5765 84.488C67.9605 84.104 68.1525 83.5067 68.1525 82.696V51.272H77.5605C78.3712 51.272 78.9472 51.1013 79.2885 50.76C79.6725 50.376 79.8645 49.7787 79.8645 48.968V41.224C79.8645 40.4133 79.6725 39.8373 79.2885 39.496C78.9472 39.112 78.3712 38.92 77.5605 38.92H43.7685C42.9578 38.92 42.3605 39.112 41.9765 39.496C41.6352 39.8373 41.4645 40.4133 41.4645 41.224V48.968C41.4645 49.7787 41.6352 50.376 41.9765 50.76C42.3605 51.1013 42.9578 51.272 43.7685 51.272H53.1765V82.696C53.1765 83.5067 53.3472 84.104 53.6885 84.488C54.0725 84.8293 54.6698 85 55.4805 85H65.8485ZM60.3445 79.24V45.32H47.2245V44.68H74.1045V45.32H60.9845V79.24H60.3445Z" fill="#282828"/>
<path d="M44.9845 91.912L45.3381 91.5584L45.3381 91.5584L44.9845 91.912ZM44.2805 58.888H44.7805V58.388H44.2805V58.888ZM33.2725 58.184L33.6261 57.8304L33.6261 57.8304L33.2725 58.184ZM32.7605 46.792L32.3036 46.5889L32.2938 46.611L32.2862 46.6339L32.7605 46.792ZM33.4645 45.832L33.1418 45.4501L33.1391 45.4524L33.4645 45.832ZM41.7205 38.856L41.408 38.4654L41.3978 38.4741L41.7205 38.856ZM42.5525 38.472L42.6738 38.9571L42.6924 38.9524L42.7106 38.9463L42.5525 38.472ZM79.8005 38.984L80.1541 38.6304L80.1541 38.6304L79.8005 38.984ZM80.2485 50.376L79.7916 50.1729L79.7818 50.195L79.7742 50.2179L80.2485 50.376ZM79.6085 51.336L79.928 51.7206L79.9339 51.7156L79.6085 51.336ZM71.2885 58.248L70.969 57.8634L70.9513 57.8781L70.9349 57.8944L71.2885 58.248ZM70.4565 58.696L70.2984 58.2217L70.2896 58.2246L70.2809 58.2278L70.4565 58.696ZM68.7925 58.888V58.388H68.2925V58.888H68.7925ZM68.5365 84.104L68.0796 83.9009L68.0698 83.923L68.0622 83.9459L68.5365 84.104ZM67.8965 85.064L68.2161 85.4486L68.2219 85.4436L67.8965 85.064ZM59.5765 91.976L59.257 91.5914L59.2393 91.6061L59.2229 91.6224L59.5765 91.976ZM58.7445 92.424L58.5864 91.9497L58.5776 91.9526L58.5689 91.9558L58.7445 92.424ZM67.5765 84.488L67.2229 84.1344L67.2229 84.1344L67.5765 84.488ZM68.1525 51.272V50.772H67.6525V51.272H68.1525ZM79.2885 39.496L78.9148 39.8282L78.9343 39.8502L78.9563 39.8697L79.2885 39.496ZM41.9765 39.496L41.6229 39.1424L41.6229 39.1424L41.9765 39.496ZM41.9765 50.76L41.6028 51.0922L41.6223 51.1142L41.6443 51.1337L41.9765 50.76ZM53.1765 51.272H53.6765V50.772H53.1765V51.272ZM53.6885 84.488L53.3148 84.8202L53.3343 84.8422L53.3563 84.8617L53.6885 84.488ZM60.3445 79.24H59.8445V79.74H60.3445V79.24ZM60.3445 45.32H60.8445V44.82H60.3445V45.32ZM47.2245 45.32H46.7245V45.82H47.2245V45.32ZM47.2245 44.68V44.18H46.7245V44.68H47.2245ZM74.1045 44.68H74.6045V44.18H74.1045V44.68ZM74.1045 45.32V45.82H74.6045V45.32H74.1045ZM60.9845 45.32V44.82H60.4845V45.32H60.9845ZM60.9845 79.24V79.74H61.4845V79.24H60.9845ZM57.5925 92.116H47.2245V93.116H57.5925V92.116ZM47.2245 92.116C46.2628 92.116 45.6735 91.8939 45.3381 91.5584L44.6309 92.2656C45.2342 92.8688 46.1382 93.116 47.2245 93.116V92.116ZM45.3381 91.5584C45.0026 91.223 44.7805 90.6337 44.7805 89.672H43.7805C43.7805 90.7583 44.0277 91.6623 44.6309 92.2656L45.3381 91.5584ZM44.7805 89.672V58.888H43.7805V89.672H44.7805ZM44.2805 58.388H35.5125V59.388H44.2805V58.388ZM35.5125 58.388C34.5508 58.388 33.9615 58.1659 33.6261 57.8304L32.9189 58.5376C33.5222 59.1408 34.4262 59.388 35.5125 59.388V58.388ZM33.6261 57.8304C33.2906 57.495 33.0685 56.9057 33.0685 55.944H32.0685C32.0685 57.0303 32.3157 57.9343 32.9189 58.5376L33.6261 57.8304ZM33.0685 55.944V48.2H32.0685V55.944H33.0685ZM33.0685 48.2C33.0685 47.6806 33.1288 47.2682 33.2348 46.9501L32.2862 46.6339C32.1362 47.0838 32.0685 47.61 32.0685 48.2H33.0685ZM33.2174 46.9951C33.36 46.6742 33.5514 46.416 33.7899 46.2116L33.1391 45.4524C32.7802 45.76 32.5023 46.1418 32.3036 46.5889L33.2174 46.9951ZM33.7872 46.2139L42.0432 39.2379L41.3978 38.4741L33.1418 45.4501L33.7872 46.2139ZM42.0328 39.2464C42.1763 39.1316 42.3829 39.0298 42.6738 38.9571L42.4312 37.9869C42.0395 38.0849 41.6913 38.239 41.4082 38.4656L42.0328 39.2464ZM42.7106 38.9463C43.0409 38.8362 43.3927 38.78 43.7685 38.78V37.78C43.291 37.78 42.8321 37.8518 42.3944 37.9977L42.7106 38.9463ZM43.7685 38.78H77.5605V37.78H43.7685V38.78ZM77.5605 38.78C78.5222 38.78 79.1115 39.0021 79.447 39.3376L80.1541 38.6304C79.5508 38.0272 78.6468 37.78 77.5605 37.78V38.78ZM79.4469 39.3375C79.7824 39.673 80.0045 40.2623 80.0045 41.224H81.0045C81.0045 40.1377 80.7573 39.2337 80.1541 38.6304L79.4469 39.3375ZM80.0045 41.224V48.968H81.0045V41.224H80.0045ZM80.0045 48.968C80.0045 49.474 79.9263 49.8698 79.7916 50.1729L80.7054 50.5791C80.912 50.1142 81.0045 49.5713 81.0045 48.968H80.0045ZM79.7742 50.2179C79.6739 50.5185 79.5109 50.7611 79.2831 50.9564L79.9339 51.7156C80.3034 51.3989 80.5671 51.0015 80.7228 50.5341L79.7742 50.2179ZM79.289 50.9514L70.969 57.8634L71.608 58.6326L79.928 51.7206L79.289 50.9514ZM70.9349 57.8944C70.8444 57.985 70.6524 58.1037 70.2984 58.2217L70.6146 59.1703C71.0286 59.0323 71.3913 58.8523 71.6421 58.6016L70.9349 57.8944ZM70.2809 58.2278C70.0044 58.3315 69.6812 58.388 69.3045 58.388V59.388C69.7811 59.388 70.2259 59.3165 70.6321 59.1642L70.2809 58.2278ZM69.3045 58.388H68.7925V59.388H69.3045V58.388ZM68.2925 58.888V82.696H69.2925V58.888H68.2925ZM68.2925 82.696C68.2925 83.202 68.2143 83.5978 68.0796 83.9009L68.9934 84.3071C69.2 83.8422 69.2925 83.2993 69.2925 82.696H68.2925ZM68.0622 83.9459C67.9619 84.2465 67.7989 84.4891 67.5711 84.6844L68.2219 85.4436C68.5914 85.1269 68.8551 84.7295 69.0108 84.2621L68.0622 83.9459ZM67.577 84.6794L59.257 91.5914L59.896 92.3606L68.216 85.4486L67.577 84.6794ZM59.2229 91.6224C59.1324 91.713 58.9404 91.8317 58.5864 91.9497L58.9026 92.8983C59.3166 92.7603 59.6793 92.5803 59.9301 92.3296L59.2229 91.6224ZM58.5689 91.9558C58.2924 92.0595 57.9692 92.116 57.5925 92.116V93.116C58.0691 93.116 58.5139 93.0445 58.9201 92.8922L58.5689 91.9558ZM65.8485 85.5C66.7069 85.5 67.4484 85.3232 67.9301 84.8416L67.2229 84.1344C67.0219 84.3355 66.6115 84.5 65.8485 84.5V85.5ZM67.9301 84.8416C68.4454 84.3263 68.6525 83.5746 68.6525 82.696H67.6525C67.6525 83.4388 67.4756 83.8817 67.2229 84.1344L67.9301 84.8416ZM68.6525 82.696V51.272H67.6525V82.696H68.6525ZM68.1525 51.772H77.5605V50.772H68.1525V51.772ZM77.5605 51.772C78.4189 51.772 79.1604 51.5952 79.6421 51.1136L78.9349 50.4064C78.7339 50.6075 78.3235 50.772 77.5605 50.772V51.772ZM79.6421 51.1136C80.1574 50.5983 80.3645 49.8466 80.3645 48.968H79.3645C79.3645 49.7108 79.1876 50.1537 78.9349 50.4064L79.6421 51.1136ZM80.3645 48.968V41.224H79.3645V48.968H80.3645ZM80.3645 41.224C80.3645 40.3519 80.16 39.6017 79.6207 39.1223L78.9563 39.8697C79.185 40.073 79.3645 40.4748 79.3645 41.224H80.3645ZM79.6622 39.1638C79.1828 38.6245 78.4326 38.42 77.5605 38.42V39.42C78.3097 39.42 78.7115 39.5995 78.9148 39.8282L79.6622 39.1638ZM77.5605 38.42H43.7685V39.42H77.5605V38.42ZM43.7685 38.42C42.8899 38.42 42.1382 38.6271 41.6229 39.1424L42.3301 39.8496C42.5828 39.5969 43.0257 39.42 43.7685 39.42V38.42ZM41.6229 39.1424C41.1413 39.6241 40.9645 40.3656 40.9645 41.224H41.9645C41.9645 40.461 42.129 40.0506 42.3301 39.8496L41.6229 39.1424ZM40.9645 41.224V48.968H41.9645V41.224H40.9645ZM40.9645 48.968C40.9645 49.8338 41.1444 50.5765 41.6028 51.0922L42.3502 50.4278C42.126 50.1755 41.9645 49.7236 41.9645 48.968H40.9645ZM41.6443 51.1337C42.16 51.5921 42.9027 51.772 43.7685 51.772V50.772C43.0129 50.772 42.561 50.6105 42.3087 50.3863L41.6443 51.1337ZM43.7685 51.772H53.1765V50.772H43.7685V51.772ZM52.6765 51.272V82.696H53.6765V51.272H52.6765ZM52.6765 82.696C52.6765 83.5618 52.8564 84.3045 53.3148 84.8202L54.0622 84.1558C53.838 83.9035 53.6765 83.4516 53.6765 82.696H52.6765ZM53.3563 84.8617C53.872 85.3201 54.6147 85.5 55.4805 85.5V84.5C54.7249 84.5 54.273 84.3385 54.0207 84.1143L53.3563 84.8617ZM55.4805 85.5H65.8485V84.5H55.4805V85.5ZM60.8445 79.24V45.32H59.8445V79.24H60.8445ZM60.3445 44.82H47.2245V45.82H60.3445V44.82ZM47.7245 45.32V44.68H46.7245V45.32H47.7245ZM47.2245 45.18H74.1045V44.18H47.2245V45.18ZM73.6045 44.68V45.32H74.6045V44.68H73.6045ZM74.1045 44.82H60.9845V45.82H74.1045V44.82ZM60.4845 45.32V79.24H61.4845V45.32H60.4845ZM60.9845 78.74H60.3445V79.74H60.9845V78.74Z" fill="#1D2021"/>
<path d="M71.004 91.712C70.236 91.712 69.676 91.536 69.324 91.184C68.972 90.832 68.796 90.272 68.796 89.504V83.888C68.796 83.472 68.844 83.12 68.94 82.832C69.068 82.544 69.244 82.304 69.468 82.112L74.268 78.08C72.572 77.568 71.228 76.704 70.236 75.488C69.276 74.24 68.796 72.464 68.796 70.16V65.12C68.796 63.68 69.036 62.4 69.516 61.28C69.996 60.16 70.684 59.216 71.58 58.448L77.82 53.216C78.684 52.512 79.756 51.968 81.036 51.584C82.316 51.168 83.772 50.96 85.404 50.96H98.844C99.612 50.96 100.172 51.136 100.524 51.488C100.876 51.84 101.052 52.4 101.052 53.168V58.88C101.052 59.296 100.988 59.648 100.86 59.936C100.764 60.224 100.604 60.464 100.38 60.656L96.06 64.256C98.076 64.704 99.692 65.552 100.908 66.8C102.156 68.016 102.78 69.92 102.78 72.512V77.552C102.78 78.992 102.54 80.272 102.06 81.392C101.58 82.512 100.876 83.456 99.948 84.224L93.756 89.408C92.86 90.144 91.772 90.704 90.492 91.088C89.212 91.504 87.772 91.712 86.172 91.712H71.004ZM92.364 86C95.436 86 97.852 85.28 99.612 83.84C101.404 82.368 102.3 80.272 102.3 77.552V72.512C102.3 69.824 101.612 67.904 100.236 66.752C98.86 65.6 97.052 64.864 94.812 64.544L87.66 63.584C87.244 63.552 86.924 63.392 86.7 63.104C86.476 62.816 86.364 62.464 86.364 62.048C86.364 61.632 86.476 61.296 86.7 61.04C86.924 60.752 87.244 60.608 87.66 60.608H98.844C99.452 60.608 99.884 60.48 100.14 60.224C100.428 59.936 100.572 59.488 100.572 58.88V53.168C100.572 52.56 100.428 52.128 100.14 51.872C99.884 51.584 99.452 51.44 98.844 51.44H85.404C82.3 51.44 79.868 52.176 78.108 53.648C76.348 55.088 75.468 57.168 75.468 59.888V64.928C75.468 67.616 76.14 69.536 77.484 70.688C78.86 71.84 80.668 72.576 82.908 72.896L90.108 73.904C90.524 73.936 90.828 74.08 91.02 74.336C91.244 74.592 91.356 74.992 91.356 75.536C91.356 75.92 91.244 76.256 91.02 76.544C90.828 76.8 90.524 76.928 90.108 76.928H77.196C76.588 76.928 76.14 77.072 75.852 77.36C75.596 77.616 75.468 78.048 75.468 78.656V84.272C75.468 84.88 75.596 85.328 75.852 85.616C76.14 85.872 76.588 86 77.196 86H92.364ZM96.252 55.76V56.24H85.596C84.252 56.24 83.18 56.608 82.38 57.344C81.58 58.08 81.18 59.008 81.18 60.128V64.064C81.18 65.184 81.404 65.968 81.852 66.416C82.3 66.864 82.892 67.152 83.628 67.28L93.756 69.344C94.716 69.536 95.5 69.952 96.108 70.592C96.748 71.232 97.068 72.384 97.068 74.048V76.832C97.068 78.24 96.588 79.408 95.628 80.336C94.668 81.232 93.372 81.68 91.74 81.68H79.788V81.2H91.74C93.212 81.2 94.38 80.8 95.244 80C96.14 79.168 96.588 78.112 96.588 76.832V74.048C96.588 72.544 96.316 71.52 95.772 70.976C95.26 70.4 94.556 70.016 93.66 69.824L83.532 67.76C82.7 67.6 82.012 67.28 81.468 66.8C80.956 66.288 80.7 65.376 80.7 64.064V60.128C80.7 58.848 81.148 57.808 82.044 57.008C82.94 56.176 84.124 55.76 85.596 55.76H96.252Z" fill="#282828"/>
<path d="M69.324 91.184L69.6776 90.8304L69.6776 90.8304L69.324 91.184ZM68.94 82.832L68.4831 82.6289L68.4733 82.651L68.4657 82.6739L68.94 82.832ZM69.468 82.112L69.1464 81.7291L69.1426 81.7324L69.468 82.112ZM74.268 78.08L74.5896 78.4629L75.2972 77.8684L74.4125 77.6013L74.268 78.08ZM70.236 75.488L69.8397 75.7929L69.844 75.7985L69.8486 75.8041L70.236 75.488ZM69.516 61.28L69.0564 61.083L69.0564 61.083L69.516 61.28ZM71.58 58.448L71.2587 58.0648L71.2546 58.0684L71.58 58.448ZM77.82 53.216L77.5041 52.8283L77.4987 52.8329L77.82 53.216ZM81.036 51.584L81.1797 52.063L81.1905 52.0595L81.036 51.584ZM100.86 59.936L100.403 59.7329L100.393 59.755L100.386 59.7779L100.86 59.936ZM100.38 60.656L100.7 61.0401L100.705 61.0356L100.38 60.656ZM96.06 64.256L95.7399 63.8719L94.9582 64.5233L95.9515 64.7441L96.06 64.256ZM100.908 66.8L100.55 67.149L100.559 67.1581L100.908 66.8ZM102.06 81.392L102.52 81.589L102.52 81.589L102.06 81.392ZM99.948 84.224L99.6292 83.8388L99.627 83.8406L99.948 84.224ZM93.756 89.408L94.0734 89.7944L94.077 89.7914L93.756 89.408ZM90.492 91.088L90.3483 90.609L90.3375 90.6125L90.492 91.088ZM99.612 83.84L99.9286 84.227L99.9294 84.2264L99.612 83.84ZM100.236 66.752L100.557 66.3686L100.557 66.3686L100.236 66.752ZM94.812 64.544L94.8827 64.049L94.8785 64.0484L94.812 64.544ZM87.66 63.584L87.7265 63.0884L87.7125 63.0866L87.6983 63.0855L87.66 63.584ZM86.7 61.04L87.0763 61.3692L87.0858 61.3584L87.0947 61.347L86.7 61.04ZM100.14 51.872L99.7663 52.2042L99.7858 52.2262L99.8078 52.2457L100.14 51.872ZM78.108 53.648L78.4246 54.035L78.4288 54.0315L78.108 53.648ZM77.484 70.688L77.1586 71.0677L77.163 71.0714L77.484 70.688ZM82.908 72.896L82.8373 73.391L82.8387 73.3912L82.908 72.896ZM90.108 73.904L90.0387 74.3992L90.0541 74.4013L90.0697 74.4025L90.108 73.904ZM91.02 74.336L90.62 74.636L90.6313 74.6511L90.6437 74.6653L91.02 74.336ZM91.02 76.544L90.6253 76.237L90.62 76.244L91.02 76.544ZM75.852 85.616L75.4783 85.9482L75.4978 85.9702L75.5198 85.9897L75.852 85.616ZM96.252 55.76H96.752V55.26H96.252V55.76ZM96.252 56.24V56.74H96.752V56.24H96.252ZM82.38 57.344L82.0415 56.976L82.0415 56.976L82.38 57.344ZM83.628 67.28L83.7278 66.7901L83.7208 66.7886L83.7137 66.7874L83.628 67.28ZM93.756 69.344L93.6562 69.8339L93.6579 69.8343L93.756 69.344ZM96.108 70.592L95.7454 70.9365L95.7544 70.9456L96.108 70.592ZM95.628 80.336L95.9692 80.7016L95.9755 80.6955L95.628 80.336ZM79.788 81.68H79.288V82.18H79.788V81.68ZM79.788 81.2V80.7H79.288V81.2H79.788ZM95.244 80L95.5837 80.3669L95.5842 80.3664L95.244 80ZM95.772 70.976L95.3983 71.3082L95.4081 71.3192L95.4184 71.3296L95.772 70.976ZM93.66 69.824L93.7648 69.3351L93.7598 69.3341L93.66 69.824ZM83.532 67.76L83.6319 67.27L83.6264 67.269L83.532 67.76ZM81.468 66.8L81.1144 67.1536L81.1255 67.1646L81.1372 67.1749L81.468 66.8ZM82.044 57.008L82.3771 57.381L82.3842 57.3744L82.044 57.008ZM71.004 91.212C70.2983 91.212 69.8956 91.0485 69.6776 90.8304L68.9704 91.5376C69.4564 92.0235 70.1737 92.212 71.004 92.212V91.212ZM69.6776 90.8304C69.4595 90.6124 69.296 90.2097 69.296 89.504H68.296C68.296 90.3343 68.4845 91.0516 68.9704 91.5376L69.6776 90.8304ZM69.296 89.504V83.888H68.296V89.504H69.296ZM69.296 83.888C69.296 83.5073 69.3403 83.2122 69.4143 82.9901L68.4657 82.6739C68.3477 83.0278 68.296 83.4367 68.296 83.888H69.296ZM69.3969 83.0351C69.4968 82.8102 69.6296 82.632 69.7934 82.4916L69.1426 81.7324C68.8584 81.976 68.6392 82.2778 68.4831 82.6289L69.3969 83.0351ZM69.7896 82.4949L74.5896 78.4629L73.9464 77.6971L69.1464 81.7291L69.7896 82.4949ZM74.4125 77.6013C72.7991 77.1143 71.5446 76.3011 70.6234 75.1719L69.8486 75.8041C70.9114 77.1069 72.3449 78.0217 74.1235 78.5587L74.4125 77.6013ZM70.6323 75.1831C69.7644 74.0548 69.296 72.4029 69.296 70.16H68.296C68.296 72.5251 68.7876 74.4252 69.8397 75.7929L70.6323 75.1831ZM69.296 70.16V65.12H68.296V70.16H69.296ZM69.296 65.12C69.296 63.7356 69.5266 62.5245 69.9756 61.477L69.0564 61.083C68.5454 62.2755 68.296 63.6244 68.296 65.12H69.296ZM69.9756 61.477C70.4264 60.425 71.0694 59.5442 71.9054 58.8276L71.2546 58.0684C70.2986 58.8878 69.5656 59.895 69.0564 61.083L69.9756 61.477ZM71.9013 58.8311L78.1413 53.5991L77.4987 52.8329L71.2587 58.0649L71.9013 58.8311ZM78.1358 53.6036C78.9399 52.9484 79.9503 52.4317 81.1797 52.0629L80.8923 51.1051C79.5617 51.5043 78.4281 52.0756 77.5042 52.8284L78.1358 53.6036ZM81.1905 52.0595C82.4113 51.6628 83.8137 51.46 85.404 51.46V50.46C83.7303 50.46 82.2207 50.6732 80.8815 51.1085L81.1905 52.0595ZM85.404 51.46H98.844V50.46H85.404V51.46ZM98.844 51.46C99.5497 51.46 99.9524 51.6235 100.17 51.8416L100.878 51.1344C100.392 50.6485 99.6743 50.46 98.844 50.46V51.46ZM100.17 51.8416C100.389 52.0596 100.552 52.4623 100.552 53.168H101.552C101.552 52.3377 101.363 51.6204 100.878 51.1344L100.17 51.8416ZM100.552 53.168V58.88H101.552V53.168H100.552ZM100.552 58.88C100.552 59.2474 100.495 59.5258 100.403 59.7329L101.317 60.1391C101.481 59.7702 101.552 59.3446 101.552 58.88H100.552ZM100.386 59.7779C100.317 59.9825 100.208 60.1451 100.055 60.2764L100.705 61.0356C101 60.7829 101.211 60.4655 101.334 60.0941L100.386 59.7779ZM100.06 60.2719L95.7399 63.8719L96.3801 64.6401L100.7 61.0401L100.06 60.2719ZM95.9515 64.7441C97.8904 65.175 99.4135 65.9827 100.55 67.1489L101.266 66.4511C99.9705 65.1213 98.2616 64.233 96.1685 63.7679L95.9515 64.7441ZM100.559 67.1581C101.672 68.2425 102.28 69.9894 102.28 72.512H103.28C103.28 69.8506 102.64 67.7895 101.257 66.4419L100.559 67.1581ZM102.28 72.512V77.552H103.28V72.512H102.28ZM102.28 77.552C102.28 78.9364 102.049 80.1475 101.6 81.195L102.52 81.589C103.031 80.3965 103.28 79.0476 103.28 77.552H102.28ZM101.6 81.195C101.151 82.2429 100.495 83.1221 99.6292 83.8388L100.267 84.6092C101.257 83.7899 102.009 82.7811 102.52 81.589L101.6 81.195ZM99.627 83.8406L93.435 89.0246L94.077 89.7914L100.269 84.6074L99.627 83.8406ZM93.4386 89.0216C92.601 89.7097 91.5745 90.2412 90.3483 90.6091L90.6357 91.5669C91.9695 91.1668 93.119 90.5783 94.0734 89.7944L93.4386 89.0216ZM90.3375 90.6125C89.1158 91.0095 87.7291 91.212 86.172 91.212V92.212C87.8149 92.212 89.3082 91.9985 90.6465 91.5635L90.3375 90.6125ZM86.172 91.212H71.004V92.212H86.172V91.212ZM92.364 86.5C95.5109 86.5 98.0523 85.7621 99.9286 84.227L99.2954 83.453C97.6517 84.7979 95.3611 85.5 92.364 85.5V86.5ZM99.9294 84.2264C101.858 82.6425 102.8 80.3928 102.8 77.552H101.8C101.8 80.1512 100.95 82.0935 99.2946 83.4536L99.9294 84.2264ZM102.8 77.552V72.512H101.8V77.552H102.8ZM102.8 72.512C102.8 69.751 102.094 67.655 100.557 66.3686L99.915 67.1354C101.13 68.153 101.8 69.897 101.8 72.512H102.8ZM100.557 66.3686C99.0931 65.1431 97.191 64.3788 94.8827 64.049L94.7413 65.039C96.913 65.3492 98.6269 66.0569 99.915 67.1354L100.557 66.3686ZM94.8785 64.0484L87.7265 63.0884L87.5935 64.0796L94.7455 65.0396L94.8785 64.0484ZM87.6983 63.0855C87.4006 63.0626 87.2194 62.9574 87.0947 62.797L86.3053 63.411C86.6286 63.8266 87.0874 64.0414 87.6217 64.0825L87.6983 63.0855ZM87.0947 62.797C86.9483 62.6089 86.864 62.3692 86.864 62.048H85.864C85.864 62.5588 86.0037 63.0231 86.3053 63.411L87.0947 62.797ZM86.864 62.048C86.864 61.7249 86.9488 61.5149 87.0763 61.3692L86.3237 60.7107C86.0032 61.0771 85.864 61.539 85.864 62.048H86.864ZM87.0947 61.347C87.2098 61.1989 87.3738 61.108 87.66 61.108V60.108C87.1142 60.108 86.6382 60.3051 86.3053 60.733L87.0947 61.347ZM87.66 61.108H98.844V60.108H87.66V61.108ZM98.844 61.108C99.4997 61.108 100.097 60.9739 100.494 60.5776L99.7864 59.8704C99.6708 59.9861 99.4043 60.108 98.844 60.108V61.108ZM100.494 60.5776C100.913 60.1583 101.072 59.5559 101.072 58.88H100.072C100.072 59.4201 99.9431 59.7137 99.7864 59.8704L100.494 60.5776ZM101.072 58.88V53.168H100.072V58.88H101.072ZM101.072 53.168C101.072 52.4986 100.916 51.8924 100.472 51.4983L99.8078 52.2457C99.9405 52.3636 100.072 52.6214 100.072 53.168H101.072ZM100.514 51.5398C100.12 51.0965 99.5134 50.94 98.844 50.94V51.94C99.3906 51.94 99.6484 52.0715 99.7663 52.2042L100.514 51.5398ZM98.844 50.94H85.404V51.94H98.844V50.94ZM85.404 50.94C82.2242 50.94 79.6645 51.6943 77.7872 53.2645L78.4288 54.0315C80.0715 52.6577 82.3758 51.94 85.404 51.94V50.94ZM77.7914 53.261C75.8923 54.8149 74.968 57.0506 74.968 59.888H75.968C75.968 57.2854 76.8038 55.3611 78.4246 54.035L77.7914 53.261ZM74.968 59.888V64.928H75.968V59.888H74.968ZM74.968 64.928C74.968 67.6857 75.6567 69.7802 77.1586 71.0676L77.8094 70.3084C76.6233 69.2918 75.968 67.5463 75.968 64.928H74.968ZM77.163 71.0714C78.6269 72.2969 80.529 73.0612 82.8373 73.391L82.9787 72.401C80.807 72.0908 79.0931 71.3831 77.805 70.3046L77.163 71.0714ZM82.8387 73.3912L90.0387 74.3992L90.1773 73.4088L82.9773 72.4008L82.8387 73.3912ZM90.0697 74.4025C90.3885 74.4271 90.5388 74.5278 90.62 74.636L91.42 74.036C91.1172 73.6322 90.6595 73.4449 90.1463 73.4055L90.0697 74.4025ZM90.6437 74.6653C90.7521 74.7892 90.856 75.0446 90.856 75.536H91.856C91.856 74.9394 91.7359 74.3948 91.3963 74.0067L90.6437 74.6653ZM90.856 75.536C90.856 75.8151 90.7773 76.0416 90.6253 76.237L91.4147 76.851C91.7107 76.4704 91.856 76.0249 91.856 75.536H90.856ZM90.62 76.244C90.5496 76.3378 90.4183 76.428 90.108 76.428V77.428C90.6297 77.428 91.1064 77.2622 91.42 76.844L90.62 76.244ZM90.108 76.428H77.196V77.428H90.108V76.428ZM77.196 76.428C76.5201 76.428 75.9177 76.5871 75.4984 77.0064L76.2056 77.7136C76.3623 77.5569 76.6559 77.428 77.196 77.428V76.428ZM75.4984 77.0064C75.1021 77.4028 74.968 78.0003 74.968 78.656H75.968C75.968 78.0957 76.0899 77.8292 76.2056 77.7136L75.4984 77.0064ZM74.968 78.656V84.272H75.968V78.656H74.968ZM74.968 84.272C74.968 84.9351 75.1052 85.5285 75.4783 85.9482L76.2257 85.2838C76.0868 85.1275 75.968 84.8249 75.968 84.272H74.968ZM75.5198 85.9897C75.9395 86.3628 76.5329 86.5 77.196 86.5V85.5C76.6431 85.5 76.3405 85.3812 76.1842 85.2423L75.5198 85.9897ZM77.196 86.5H92.364V85.5H77.196V86.5ZM95.752 55.76V56.24H96.752V55.76H95.752ZM96.252 55.74H85.596V56.74H96.252V55.74ZM85.596 55.74C84.1576 55.74 82.9543 56.1362 82.0415 56.976L82.7185 57.712C83.4057 57.0798 84.3464 56.74 85.596 56.74V55.74ZM82.0415 56.976C81.1351 57.8099 80.68 58.873 80.68 60.128H81.68C81.68 59.143 82.0249 58.3501 82.7185 57.712L82.0415 56.976ZM80.68 60.128V64.064H81.68V60.128H80.68ZM80.68 64.064C80.68 65.2229 80.9065 66.1776 81.4984 66.7696L82.2056 66.0624C81.9015 65.7584 81.68 65.1451 81.68 64.064H80.68ZM81.4984 66.7696C82.0316 67.3027 82.7235 67.6302 83.5423 67.7726L83.7137 66.7874C83.0605 66.6738 82.5684 66.4253 82.2056 66.0624L81.4984 66.7696ZM83.5282 67.7699L93.6562 69.8339L93.8558 68.8541L83.7278 66.7901L83.5282 67.7699ZM93.6579 69.8343C94.5284 70.0084 95.2162 70.3792 95.7455 70.9364L96.4705 70.2476C95.7838 69.5248 94.9036 69.0636 93.8541 68.8537L93.6579 69.8343ZM95.7544 70.9456C96.2478 71.4389 96.568 72.4161 96.568 74.048H97.568C97.568 72.3519 97.2482 71.0251 96.4616 70.2384L95.7544 70.9456ZM96.568 74.048V76.832H97.568V74.048H96.568ZM96.568 76.832C96.568 78.1127 96.1373 79.1483 95.2805 79.9765L95.9755 80.6955C97.0388 79.6677 97.568 78.3673 97.568 76.832H96.568ZM95.2868 79.9705C94.4406 80.7603 93.2776 81.18 91.74 81.18V82.18C93.4664 82.18 94.8955 81.7037 95.9692 80.7015L95.2868 79.9705ZM91.74 81.18H79.788V82.18H91.74V81.18ZM80.288 81.68V81.2H79.288V81.68H80.288ZM79.788 81.7H91.74V80.7H79.788V81.7ZM91.74 81.7C93.3051 81.7 94.6057 81.2725 95.5837 80.3669L94.9043 79.6331C94.1543 80.3275 93.1189 80.7 91.74 80.7V81.7ZM95.5842 80.3664C96.5874 79.4349 97.088 78.2437 97.088 76.832H96.088C96.088 77.9803 95.6926 78.9011 94.9038 79.6336L95.5842 80.3664ZM97.088 76.832V74.048H96.088V76.832H97.088ZM97.088 74.048C97.088 72.5225 96.8201 71.317 96.1256 70.6224L95.4184 71.3296C95.8119 71.723 96.088 72.5655 96.088 74.048H97.088ZM96.1457 70.6438C95.5504 69.9741 94.7446 69.5451 93.7648 69.3351L93.5552 70.3129C94.3674 70.4869 94.9696 70.8259 95.3983 71.3082L96.1457 70.6438ZM93.7598 69.3341L83.6318 67.2701L83.4322 68.2499L93.5602 70.3139L93.7598 69.3341ZM83.6264 67.269C82.8673 67.123 82.2653 66.8367 81.7988 66.4251L81.1372 67.1749C81.7587 67.7233 82.5327 68.077 83.4376 68.251L83.6264 67.269ZM81.8216 66.4464C81.4552 66.0801 81.2 65.3414 81.2 64.064H80.2C80.2 65.4106 80.4568 66.4959 81.1144 67.1536L81.8216 66.4464ZM81.2 64.064V60.128H80.2V64.064H81.2ZM81.2 60.128C81.2 58.9799 81.5949 58.0793 82.377 57.381L81.711 56.635C80.7011 57.5367 80.2 58.7161 80.2 60.128H81.2ZM82.3842 57.3744C83.1696 56.6451 84.223 56.26 85.596 56.26V55.26C84.025 55.26 82.7104 55.7068 81.7038 56.6416L82.3842 57.3744ZM85.596 56.26H96.252V55.26H85.596V56.26Z" fill="#1D2021"/>
</svg>
