<svg width="94" height="94" viewBox="0 0 94 94" fill="none" xmlns="http://www.w3.org/2000/svg">
<mask id="mask0_11_99" style="mask-type:alpha" maskUnits="userSpaceOnUse" x="0" y="0" width="94" height="94">
<circle cx="47" cy="47" r="47" fill="#D9D9D9"/>
</mask>
<g mask="url(#mask0_11_99)">
<path d="M125.241 3.46465L142.211 20.4352L9.7555 152.891L-7.21506 135.921L125.241 3.46465Z" fill="#458588"/>
<path d="M74.3292 -47.447L91.2998 -30.4765L-41.1562 101.979L-58.1267 85.0089L74.3292 -47.447Z" fill="#CC241D"/>
<path d="M91.2998 -30.4765L108.27 -13.5059L-24.1856 118.95L-41.1562 101.979L91.2998 -30.4765Z" fill="#D79921"/>
<path d="M108.27 -13.5059L125.241 3.46465L-7.21508 135.921L-24.1856 118.95L108.27 -13.5059Z" fill="#98971A"/>
<path d="M35.4744 73.4982H25.1064C24.0824 73.4982 23.3357 73.2636 22.8664 72.7942C22.3971 72.3249 22.1624 71.5782 22.1624 70.5542V39.7702H13.3944C12.3704 39.7702 11.6237 39.5356 11.1544 39.0662C10.6851 38.5969 10.4504 37.8502 10.4504 36.8262V29.0822C10.4504 28.5276 10.5144 28.0582 10.6424 27.6742C10.8131 27.2902 11.0477 26.9702 11.3464 26.7142L19.6024 19.7382C19.8157 19.5676 20.0931 19.4396 20.4344 19.3542C20.8184 19.2262 21.2237 19.1622 21.6504 19.1622H55.4424C56.4664 19.1622 57.2131 19.3969 57.6824 19.8662C58.1517 20.3356 58.3864 21.0822 58.3864 22.1062V29.8502C58.3864 30.4049 58.3011 30.8742 58.1304 31.2582C58.0024 31.6422 57.7891 31.9622 57.4904 32.2182L49.1704 39.1302C48.9997 39.3009 48.7224 39.4502 48.3384 39.5782C47.9971 39.7062 47.6131 39.7702 47.1864 39.7702H46.6744V63.5782C46.6744 64.1329 46.5891 64.6022 46.4184 64.9862C46.2904 65.3702 46.0771 65.6902 45.7784 65.9462L37.4584 72.8582C37.2877 73.0289 37.0104 73.1782 36.6264 73.3062C36.2851 73.4342 35.9011 73.4982 35.4744 73.4982ZM43.7304 65.8822C44.5411 65.8822 45.1171 65.7116 45.4584 65.3702C45.8424 64.9862 46.0344 64.3889 46.0344 63.5782V32.1542H55.4424C56.2531 32.1542 56.8291 31.9836 57.1704 31.6422C57.5544 31.2582 57.7464 30.6609 57.7464 29.8502V22.1062C57.7464 21.2956 57.5544 20.7196 57.1704 20.3782C56.8291 19.9942 56.2531 19.8022 55.4424 19.8022H21.6504C20.8397 19.8022 20.2424 19.9942 19.8584 20.3782C19.5171 20.7196 19.3464 21.2956 19.3464 22.1062V29.8502C19.3464 30.6609 19.5171 31.2582 19.8584 31.6422C20.2424 31.9836 20.8397 32.1542 21.6504 32.1542H31.0584V63.5782C31.0584 64.3889 31.2291 64.9862 31.5704 65.3702C31.9544 65.7116 32.5517 65.8822 33.3624 65.8822H43.7304ZM38.2264 60.1222V26.2022H25.1064V25.5622H51.9864V26.2022H38.8664V60.1222H38.2264Z" fill="#282828"/>
<path d="M22.8664 72.7942L23.22 72.4407L23.22 72.4407L22.8664 72.7942ZM22.1624 39.7702H22.6624V39.2702H22.1624V39.7702ZM11.1544 39.0662L11.508 38.7127H11.508L11.1544 39.0662ZM10.6424 27.6742L10.1855 27.4712L10.1757 27.4932L10.1681 27.5161L10.6424 27.6742ZM11.3464 26.7142L11.0237 26.3323L11.021 26.3346L11.3464 26.7142ZM19.6024 19.7382L19.2899 19.3477L19.2797 19.3563L19.6024 19.7382ZM20.4344 19.3542L20.5557 19.8393L20.5743 19.8347L20.5925 19.8286L20.4344 19.3542ZM57.6824 19.8662L58.036 19.5127V19.5127L57.6824 19.8662ZM58.1304 31.2582L57.6735 31.0552L57.6637 31.0772L57.6561 31.1001L58.1304 31.2582ZM57.4904 32.2182L57.8099 32.6029L57.8158 32.5979L57.4904 32.2182ZM49.1704 39.1302L48.8509 38.7456L48.8332 38.7604L48.8168 38.7767L49.1704 39.1302ZM48.3384 39.5782L48.1803 39.1039L48.1715 39.1068L48.1628 39.1101L48.3384 39.5782ZM46.6744 39.7702V39.2702H46.1744V39.7702H46.6744ZM46.4184 64.9862L45.9615 64.7832L45.9517 64.8052L45.9441 64.8281L46.4184 64.9862ZM45.7784 65.9462L46.0979 66.3309L46.1038 66.3259L45.7784 65.9462ZM37.4584 72.8582L37.1389 72.4736L37.1212 72.4884L37.1048 72.5047L37.4584 72.8582ZM36.6264 73.3062L36.4683 72.8319L36.4595 72.8348L36.4508 72.8381L36.6264 73.3062ZM45.4584 65.3702L45.1048 65.0167V65.0167L45.4584 65.3702ZM46.0344 32.1542V31.6542H45.5344V32.1542H46.0344ZM57.1704 20.3782L56.7967 20.7104L56.8162 20.7324L56.8382 20.7519L57.1704 20.3782ZM19.8584 20.3782L19.5048 20.0247V20.0247L19.8584 20.3782ZM19.8584 31.6422L19.4847 31.9744L19.5042 31.9964L19.5262 32.0159L19.8584 31.6422ZM31.0584 32.1542H31.5584V31.6542H31.0584V32.1542ZM31.5704 65.3702L31.1967 65.7024L31.2162 65.7244L31.2382 65.7439L31.5704 65.3702ZM38.2264 60.1222H37.7264V60.6222H38.2264V60.1222ZM38.2264 26.2022H38.7264V25.7022H38.2264V26.2022ZM25.1064 26.2022H24.6064V26.7022H25.1064V26.2022ZM25.1064 25.5622V25.0622H24.6064V25.5622H25.1064ZM51.9864 25.5622H52.4864V25.0622H51.9864V25.5622ZM51.9864 26.2022V26.7022H52.4864V26.2022H51.9864ZM38.8664 26.2022V25.7022H38.3664V26.2022H38.8664ZM38.8664 60.1222V60.6222H39.3664V60.1222H38.8664ZM35.4744 72.9982H25.1064V73.9982H35.4744V72.9982ZM25.1064 72.9982C24.1447 72.9982 23.5554 72.7761 23.22 72.4407L22.5128 73.1478C23.1161 73.751 24.0201 73.9982 25.1064 73.9982V72.9982ZM23.22 72.4407C22.8845 72.1053 22.6624 71.516 22.6624 70.5542H21.6624C21.6624 71.6405 21.9096 72.5445 22.5128 73.1478L23.22 72.4407ZM22.6624 70.5542V39.7702H21.6624V70.5542H22.6624ZM22.1624 39.2702H13.3944V40.2702H22.1624V39.2702ZM13.3944 39.2702C12.4327 39.2702 11.8434 39.0481 11.508 38.7127L10.8008 39.4198C11.4041 40.023 12.3081 40.2702 13.3944 40.2702V39.2702ZM11.508 38.7127C11.1725 38.3773 10.9504 37.788 10.9504 36.8262H9.9504C9.9504 37.9125 10.1976 38.8165 10.8008 39.4198L11.508 38.7127ZM10.9504 36.8262V29.0822H9.9504V36.8262H10.9504ZM10.9504 29.0822C10.9504 28.5629 11.0107 28.1504 11.1167 27.8324L10.1681 27.5161C10.0181 27.9661 9.9504 28.4923 9.9504 29.0822H10.9504ZM11.0993 27.8773C11.2419 27.5565 11.4333 27.2983 11.6718 27.0939L11.021 26.3346C10.6621 26.6422 10.3842 27.024 10.1855 27.4712L11.0993 27.8773ZM11.6691 27.0962L19.9251 20.1202L19.2797 19.3563L11.0237 26.3323L11.6691 27.0962ZM19.9147 20.1287C20.0582 20.0139 20.2648 19.912 20.5557 19.8393L20.3131 18.8692C19.9214 18.9671 19.5732 19.1213 19.29 19.3478L19.9147 20.1287ZM20.5925 19.8286C20.9228 19.7185 21.2745 19.6622 21.6504 19.6622V18.6622C21.1729 18.6622 20.714 18.734 20.2763 18.8799L20.5925 19.8286ZM21.6504 19.6622H55.4424V18.6622H21.6504V19.6622ZM55.4424 19.6622C56.4041 19.6622 56.9934 19.8844 57.3288 20.2198L58.036 19.5127C57.4327 18.9094 56.5287 18.6622 55.4424 18.6622V19.6622ZM57.3288 20.2198C57.6643 20.5552 57.8864 21.1445 57.8864 22.1062H58.8864C58.8864 21.02 58.6392 20.1159 58.036 19.5127L57.3288 20.2198ZM57.8864 22.1062V29.8502H58.8864V22.1062H57.8864ZM57.8864 29.8502C57.8864 30.3563 57.8082 30.7521 57.6735 31.0552L58.5873 31.4613C58.7939 30.9964 58.8864 30.4536 58.8864 29.8502H57.8864ZM57.6561 31.1001C57.5558 31.4008 57.3928 31.6434 57.165 31.8386L57.8158 32.5979C58.1853 32.2811 58.449 31.8837 58.6047 31.4164L57.6561 31.1001ZM57.1709 31.8336L48.8509 38.7456L49.4899 39.5148L57.8099 32.6028L57.1709 31.8336ZM48.8168 38.7767C48.7263 38.8672 48.5343 38.9859 48.1803 39.1039L48.4965 40.0526C48.9105 39.9146 49.2732 39.7346 49.524 39.4838L48.8168 38.7767ZM48.1628 39.1101C47.8863 39.2138 47.5631 39.2702 47.1864 39.2702V40.2702C47.663 40.2702 48.1078 40.1987 48.514 40.0464L48.1628 39.1101ZM47.1864 39.2702H46.6744V40.2702H47.1864V39.2702ZM46.1744 39.7702V63.5782H47.1744V39.7702H46.1744ZM46.1744 63.5782C46.1744 64.0843 46.0962 64.4801 45.9615 64.7832L46.8753 65.1893C47.0819 64.7244 47.1744 64.1816 47.1744 63.5782H46.1744ZM45.9441 64.8281C45.8438 65.1288 45.6808 65.3714 45.453 65.5666L46.1038 66.3259C46.4733 66.0091 46.737 65.6117 46.8927 65.1444L45.9441 64.8281ZM45.4589 65.5616L37.1389 72.4736L37.7779 73.2428L46.0979 66.3308L45.4589 65.5616ZM37.1048 72.5047C37.0143 72.5952 36.8223 72.7139 36.4683 72.8319L36.7845 73.7806C37.1985 73.6426 37.5612 73.4626 37.812 73.2118L37.1048 72.5047ZM36.4508 72.8381C36.1743 72.9418 35.8511 72.9982 35.4744 72.9982V73.9982C35.951 73.9982 36.3958 73.9267 36.802 73.7744L36.4508 72.8381ZM43.7304 66.3822C44.5888 66.3822 45.3303 66.2055 45.812 65.7238L45.1048 65.0167C44.9038 65.2177 44.4934 65.3822 43.7304 65.3822V66.3822ZM45.812 65.7238C46.3273 65.2085 46.5344 64.4568 46.5344 63.5782H45.5344C45.5344 64.321 45.3575 64.764 45.1048 65.0167L45.812 65.7238ZM46.5344 63.5782V32.1542H45.5344V63.5782H46.5344ZM46.0344 32.6542H55.4424V31.6542H46.0344V32.6542ZM55.4424 32.6542C56.3008 32.6542 57.0423 32.4775 57.524 31.9958L56.8168 31.2887C56.6158 31.4897 56.2054 31.6542 55.4424 31.6542V32.6542ZM57.524 31.9958C58.0393 31.4805 58.2464 30.7288 58.2464 29.8502H57.2464C57.2464 30.593 57.0695 31.036 56.8168 31.2887L57.524 31.9958ZM58.2464 29.8502V22.1062H57.2464V29.8502H58.2464ZM58.2464 22.1062C58.2464 21.2341 58.0419 20.4839 57.5026 20.0045L56.8382 20.7519C57.0669 20.9552 57.2464 21.357 57.2464 22.1062H58.2464ZM57.5441 20.0461C57.0647 19.5067 56.3145 19.3022 55.4424 19.3022V20.3022C56.1916 20.3022 56.5934 20.4818 56.7967 20.7104L57.5441 20.0461ZM55.4424 19.3022H21.6504V20.3022H55.4424V19.3022ZM21.6504 19.3022C20.7718 19.3022 20.0201 19.5094 19.5048 20.0247L20.212 20.7318C20.4647 20.4791 20.9076 20.3022 21.6504 20.3022V19.3022ZM19.5048 20.0247C19.0232 20.5063 18.8464 21.2479 18.8464 22.1062H19.8464C19.8464 21.3433 20.0109 20.9328 20.212 20.7318L19.5048 20.0247ZM18.8464 22.1062V29.8502H19.8464V22.1062H18.8464ZM18.8464 29.8502C18.8464 30.716 19.0263 31.4587 19.4847 31.9744L20.2321 31.3101C20.0079 31.0578 19.8464 30.6058 19.8464 29.8502H18.8464ZM19.5262 32.0159C20.0419 32.4744 20.7846 32.6542 21.6504 32.6542V31.6542C20.8948 31.6542 20.4429 31.4928 20.1906 31.2685L19.5262 32.0159ZM21.6504 32.6542H31.0584V31.6542H21.6504V32.6542ZM30.5584 32.1542V63.5782H31.5584V32.1542H30.5584ZM30.5584 63.5782C30.5584 64.444 30.7383 65.1867 31.1967 65.7024L31.9441 65.0381C31.7199 64.7858 31.5584 64.3338 31.5584 63.5782H30.5584ZM31.2382 65.7439C31.7539 66.2024 32.4966 66.3822 33.3624 66.3822V65.3822C32.6068 65.3822 32.1549 65.2208 31.9026 64.9965L31.2382 65.7439ZM33.3624 66.3822H43.7304V65.3822H33.3624V66.3822ZM38.7264 60.1222V26.2022H37.7264V60.1222H38.7264ZM38.2264 25.7022H25.1064V26.7022H38.2264V25.7022ZM25.6064 26.2022V25.5622H24.6064V26.2022H25.6064ZM25.1064 26.0622H51.9864V25.0622H25.1064V26.0622ZM51.4864 25.5622V26.2022H52.4864V25.5622H51.4864ZM51.9864 25.7022H38.8664V26.7022H51.9864V25.7022ZM38.3664 26.2022V60.1222H39.3664V26.2022H38.3664ZM38.8664 59.6222H38.2264V60.6222H38.8664V59.6222Z" fill="#1D2021"/>
<path d="M48.8859 72.5942C48.1179 72.5942 47.5579 72.4182 47.2059 72.0662C46.8539 71.7142 46.6779 71.1542 46.6779 70.3862V64.7702C46.6779 64.3542 46.7259 64.0022 46.8219 63.7142C46.9499 63.4262 47.1259 63.1862 47.3499 62.9942L52.1499 58.9622C50.4539 58.4502 49.1099 57.5862 48.1179 56.3702C47.1579 55.1222 46.6779 53.3462 46.6779 51.0422V46.0022C46.6779 44.5622 46.9179 43.2822 47.3979 42.1622C47.8779 41.0422 48.5659 40.0982 49.4619 39.3302L55.7019 34.0982C56.5659 33.3942 57.6379 32.8502 58.9179 32.4662C60.1979 32.0502 61.6539 31.8422 63.2859 31.8422H76.7259C77.4939 31.8422 78.0539 32.0182 78.4059 32.3702C78.7579 32.7222 78.9339 33.2822 78.9339 34.0502V39.7622C78.9339 40.1782 78.8699 40.5302 78.7419 40.8182C78.6459 41.1062 78.4859 41.3462 78.2619 41.5382L73.9419 45.1382C75.9579 45.5862 77.5739 46.4342 78.7899 47.6822C80.0379 48.8982 80.6619 50.8022 80.6619 53.3942V58.4342C80.6619 59.8742 80.4219 61.1542 79.9419 62.2742C79.4619 63.3942 78.7579 64.3382 77.8299 65.1062L71.6379 70.2902C70.7419 71.0262 69.6539 71.5862 68.3739 71.9702C67.0939 72.3862 65.6539 72.5942 64.0539 72.5942H48.8859ZM70.2459 66.8822C73.3179 66.8822 75.7339 66.1622 77.4939 64.7222C79.2859 63.2502 80.1819 61.1542 80.1819 58.4342V53.3942C80.1819 50.7062 79.4939 48.7862 78.1179 47.6342C76.7419 46.4822 74.9339 45.7462 72.6939 45.4262L65.5419 44.4662C65.1259 44.4342 64.8059 44.2742 64.5819 43.9862C64.3579 43.6982 64.2459 43.3462 64.2459 42.9302C64.2459 42.5142 64.3579 42.1782 64.5819 41.9222C64.8059 41.6342 65.1259 41.4902 65.5419 41.4902H76.7259C77.3339 41.4902 77.7659 41.3622 78.0219 41.1062C78.3099 40.8182 78.4539 40.3702 78.4539 39.7622V34.0502C78.4539 33.4422 78.3099 33.0102 78.0219 32.7542C77.7659 32.4662 77.3339 32.3222 76.7259 32.3222H63.2859C60.1819 32.3222 57.7499 33.0582 55.9899 34.5302C54.2299 35.9702 53.3499 38.0502 53.3499 40.7702V45.8102C53.3499 48.4982 54.0219 50.4182 55.3659 51.5702C56.7419 52.7222 58.5499 53.4582 60.7899 53.7782L67.9899 54.7862C68.4059 54.8182 68.7099 54.9622 68.9019 55.2182C69.1259 55.4742 69.2379 55.8742 69.2379 56.4182C69.2379 56.8022 69.1259 57.1382 68.9019 57.4262C68.7099 57.6822 68.4059 57.8102 67.9899 57.8102H55.0779C54.4699 57.8102 54.0219 57.9542 53.7339 58.2422C53.4779 58.4982 53.3499 58.9302 53.3499 59.5382V65.1542C53.3499 65.7622 53.4779 66.2102 53.7339 66.4982C54.0219 66.7542 54.4699 66.8822 55.0779 66.8822H70.2459ZM74.1339 36.6422V37.1222H63.4779C62.1339 37.1222 61.0619 37.4902 60.2619 38.2262C59.4619 38.9622 59.0619 39.8902 59.0619 41.0102V44.9462C59.0619 46.0662 59.2859 46.8502 59.7339 47.2982C60.1819 47.7462 60.7739 48.0342 61.5099 48.1622L71.6379 50.2262C72.5979 50.4182 73.3819 50.8342 73.9899 51.4742C74.6299 52.1142 74.9499 53.2662 74.9499 54.9302V57.7142C74.9499 59.1222 74.4699 60.2902 73.5099 61.2182C72.5499 62.1142 71.2539 62.5622 69.6219 62.5622H57.6699V62.0822H69.6219C71.0939 62.0822 72.2619 61.6822 73.1259 60.8822C74.0219 60.0502 74.4699 58.9942 74.4699 57.7142V54.9302C74.4699 53.4262 74.1979 52.4022 73.6539 51.8582C73.1419 51.2822 72.4379 50.8982 71.5419 50.7062L61.4139 48.6422C60.5819 48.4822 59.8939 48.1622 59.3499 47.6822C58.8379 47.1702 58.5819 46.2582 58.5819 44.9462V41.0102C58.5819 39.7302 59.0299 38.6902 59.9259 37.8902C60.8219 37.0582 62.0059 36.6422 63.4779 36.6422H74.1339Z" fill="#282828"/>
<path d="M47.2059 72.0662L47.5595 71.7127L47.2059 72.0662ZM46.8219 63.7142L46.365 63.5112L46.3552 63.5332L46.3476 63.5561L46.8219 63.7142ZM47.3499 62.9942L47.0283 62.6114L47.0245 62.6146L47.3499 62.9942ZM52.1499 58.9622L52.4715 59.3451L53.1791 58.7507L52.2944 58.4836L52.1499 58.9622ZM48.1179 56.3702L47.7216 56.6751L47.7259 56.6808L47.7305 56.6863L48.1179 56.3702ZM47.3979 42.1622L46.9383 41.9653H46.9383L47.3979 42.1622ZM49.4619 39.3302L49.1406 38.9471L49.1365 38.9506L49.4619 39.3302ZM55.7019 34.0982L55.386 33.7106L55.3806 33.7151L55.7019 34.0982ZM58.9179 32.4662L59.0616 32.9453L59.0724 32.9418L58.9179 32.4662ZM78.7419 40.8182L78.285 40.6152L78.2752 40.6372L78.2676 40.6601L78.7419 40.8182ZM78.2619 41.5382L78.582 41.9224L78.5873 41.9179L78.2619 41.5382ZM73.9419 45.1382L73.6218 44.7541L72.8401 45.4056L73.8334 45.6263L73.9419 45.1382ZM78.7899 47.6822L78.4317 48.0313L78.441 48.0404L78.7899 47.6822ZM79.9419 62.2742L80.4015 62.4712L79.9419 62.2742ZM77.8299 65.1062L77.5111 64.721L77.5089 64.7229L77.8299 65.1062ZM71.6379 70.2902L71.9553 70.6766L71.9589 70.6736L71.6379 70.2902ZM68.3739 71.9702L68.2302 71.4912L68.2194 71.4947L68.3739 71.9702ZM77.4939 64.7222L77.8105 65.1092L77.8113 65.1086L77.4939 64.7222ZM78.1179 47.6342L78.4389 47.2509L78.1179 47.6342ZM72.6939 45.4262L72.7646 44.9312L72.7604 44.9307L72.6939 45.4262ZM65.5419 44.4662L65.6084 43.9707L65.5944 43.9688L65.5802 43.9677L65.5419 44.4662ZM64.5819 41.9222L64.9582 42.2515L64.9677 42.2406L64.9766 42.2292L64.5819 41.9222ZM78.0219 32.7542L77.6482 33.0864L77.6677 33.1084L77.6897 33.1279L78.0219 32.7542ZM55.9899 34.5302L56.3065 34.9172L56.3107 34.9138L55.9899 34.5302ZM55.3659 51.5702L55.0405 51.9499L55.0449 51.9536L55.3659 51.5702ZM60.7899 53.7782L60.7192 54.2732L60.7206 54.2734L60.7899 53.7782ZM67.9899 54.7862L67.9206 55.2814L67.936 55.2836L67.9515 55.2848L67.9899 54.7862ZM68.9019 55.2182L68.5019 55.5182L68.5132 55.5333L68.5256 55.5475L68.9019 55.2182ZM68.9019 57.4262L68.5072 57.1192L68.5019 57.1262L68.9019 57.4262ZM53.7339 66.4982L53.3602 66.8304L53.3797 66.8524L53.4017 66.8719L53.7339 66.4982ZM74.1339 36.6422H74.6339V36.1422H74.1339V36.6422ZM74.1339 37.1222V37.6222H74.6339V37.1222H74.1339ZM60.2619 38.2262L59.9234 37.8583L60.2619 38.2262ZM61.5099 48.1622L61.6097 47.6723L61.6027 47.6709L61.5956 47.6696L61.5099 48.1622ZM71.6379 50.2262L71.5381 50.7162L71.5398 50.7165L71.6379 50.2262ZM73.9899 51.4742L73.6273 51.8187L73.6363 51.8278L73.9899 51.4742ZM73.5099 61.2182L73.8511 61.5838L73.8574 61.5777L73.5099 61.2182ZM57.6699 62.5622H57.1699V63.0622H57.6699V62.5622ZM57.6699 62.0822V61.5822H57.1699V62.0822H57.6699ZM73.1259 60.8822L73.4656 61.2491L73.4661 61.2486L73.1259 60.8822ZM73.6539 51.8582L73.2802 52.1904L73.29 52.2014L73.3003 52.2118L73.6539 51.8582ZM71.5419 50.7062L71.6467 50.2173L71.6417 50.2163L71.5419 50.7062ZM61.4139 48.6422L61.5137 48.1523L61.5083 48.1512L61.4139 48.6422ZM59.3499 47.6822L58.9963 48.0358L59.0074 48.0468L59.0191 48.0572L59.3499 47.6822ZM59.9259 37.8902L60.259 38.2633L60.2661 38.2566L59.9259 37.8902ZM48.8859 72.0942C48.1802 72.0942 47.7775 71.9308 47.5595 71.7127L46.8523 72.4198C47.3383 72.9057 48.0556 73.0942 48.8859 73.0942V72.0942ZM47.5595 71.7127C47.3414 71.4946 47.1779 71.092 47.1779 70.3862H46.1779C46.1779 71.2165 46.3664 71.9339 46.8523 72.4198L47.5595 71.7127ZM47.1779 70.3862V64.7702H46.1779V70.3862H47.1779ZM47.1779 64.7702C47.1779 64.3895 47.2222 64.0944 47.2962 63.8724L46.3476 63.5561C46.2296 63.9101 46.1779 64.319 46.1779 64.7702H47.1779ZM47.2788 63.9173C47.3787 63.6925 47.5115 63.5143 47.6753 63.3739L47.0245 62.6146C46.7403 62.8582 46.5211 63.16 46.365 63.5112L47.2788 63.9173ZM47.6715 63.3771L52.4715 59.3451L51.8283 58.5794L47.0283 62.6114L47.6715 63.3771ZM52.2944 58.4836C50.681 57.9965 49.4265 57.1833 48.5053 56.0542L47.7305 56.6863C48.7933 57.9892 50.2268 58.904 52.0054 59.4409L52.2944 58.4836ZM48.5142 56.0654C47.6463 54.9371 47.1779 53.2851 47.1779 51.0422H46.1779C46.1779 53.4073 46.6695 55.3074 47.7216 56.6751L48.5142 56.0654ZM47.1779 51.0422V46.0022H46.1779V51.0422H47.1779ZM47.1779 46.0022C47.1779 44.6178 47.4085 43.4067 47.8575 42.3592L46.9383 41.9653C46.4273 43.1578 46.1779 44.5066 46.1779 46.0022H47.1779ZM47.8575 42.3592C48.3083 41.3072 48.9513 40.4264 49.7873 39.7099L49.1365 38.9506C48.1805 39.7701 47.4475 40.7773 46.9383 41.9653L47.8575 42.3592ZM49.7831 39.7134L56.0231 34.4814L55.3806 33.7151L49.1406 38.9471L49.7831 39.7134ZM56.0177 34.4859C56.8218 33.8307 57.8322 33.314 59.0616 32.9452L58.7742 31.9873C57.4436 32.3865 56.31 32.9578 55.3861 33.7106L56.0177 34.4859ZM59.0724 32.9418C60.2932 32.545 61.6956 32.3422 63.2859 32.3422V31.3422C61.6122 31.3422 60.1026 31.5555 58.7634 31.9907L59.0724 32.9418ZM63.2859 32.3422H76.7259V31.3422H63.2859V32.3422ZM76.7259 32.3422C77.4316 32.3422 77.8343 32.5057 78.0523 32.7238L78.7595 32.0167C78.2735 31.5308 77.5562 31.3422 76.7259 31.3422V32.3422ZM78.0523 32.7238C78.2704 32.9419 78.4339 33.3445 78.4339 34.0502H79.4339C79.4339 33.22 79.2454 32.5026 78.7595 32.0167L78.0523 32.7238ZM78.4339 34.0502V39.7622H79.4339V34.0502H78.4339ZM78.4339 39.7622C78.4339 40.1296 78.377 40.4081 78.285 40.6152L79.1988 41.0213C79.3628 40.6524 79.4339 40.2269 79.4339 39.7622H78.4339ZM78.2676 40.6601C78.1993 40.8648 78.0896 41.0274 77.9365 41.1586L78.5873 41.9179C78.8822 41.6651 79.0925 41.3477 79.2162 40.9764L78.2676 40.6601ZM77.9418 41.1541L73.6218 44.7541L74.262 45.5224L78.582 41.9224L77.9418 41.1541ZM73.8334 45.6263C75.7723 46.0572 77.2954 46.8649 78.4318 48.0312L79.148 47.3333C77.8524 46.0036 76.1435 45.1153 74.0504 44.6501L73.8334 45.6263ZM78.441 48.0404C79.5539 49.1247 80.1619 50.8716 80.1619 53.3942H81.1619C81.1619 50.7328 80.5219 48.6718 79.1388 47.3241L78.441 48.0404ZM80.1619 53.3942V58.4342H81.1619V53.3942H80.1619ZM80.1619 58.4342C80.1619 59.8186 79.9313 61.0298 79.4823 62.0773L80.4015 62.4712C80.9125 61.2787 81.1619 59.9298 81.1619 58.4342H80.1619ZM79.4823 62.0773C79.0333 63.1251 78.3772 64.0043 77.5111 64.721L78.1487 65.4914C79.1386 64.6722 79.8905 63.6634 80.4015 62.4712L79.4823 62.0773ZM77.5089 64.7229L71.3169 69.9069L71.9589 70.6736L78.1509 65.4896L77.5089 64.7229ZM71.3205 69.9039C70.4829 70.5919 69.4564 71.1235 68.2302 71.4913L68.5176 72.4492C69.8514 72.049 71.0009 71.4606 71.9553 70.6766L71.3205 69.9039ZM68.2194 71.4947C66.9977 71.8918 65.611 72.0942 64.0539 72.0942V73.0942C65.6968 73.0942 67.1901 72.8807 68.5284 72.4458L68.2194 71.4947ZM64.0539 72.0942H48.8859V73.0942H64.0539V72.0942ZM70.2459 67.3822C73.3928 67.3822 75.9342 66.6444 77.8105 65.1092L77.1773 64.3353C75.5336 65.6801 73.2429 66.3822 70.2459 66.3822V67.3822ZM77.8113 65.1086C79.7395 63.5247 80.6819 61.2751 80.6819 58.4342H79.6819C79.6819 61.0334 78.8323 62.9757 77.1765 64.3359L77.8113 65.1086ZM80.6819 58.4342V53.3942H79.6819V58.4342H80.6819ZM80.6819 53.3942C80.6819 50.6332 79.9754 48.5373 78.4389 47.2509L77.7969 48.0176C79.0124 49.0352 79.6819 50.7793 79.6819 53.3942H80.6819ZM78.4389 47.2509C76.975 46.0253 75.0729 45.261 72.7646 44.9313L72.6232 45.9212C74.7949 46.2315 76.5088 46.9392 77.7969 48.0176L78.4389 47.2509ZM72.7604 44.9307L65.6084 43.9707L65.4754 44.9618L72.6274 45.9218L72.7604 44.9307ZM65.5802 43.9677C65.2825 43.9448 65.1013 43.8396 64.9766 43.6793L64.1872 44.2932C64.5105 44.7089 64.9693 44.9237 65.5035 44.9648L65.5802 43.9677ZM64.9766 43.6793C64.8302 43.4911 64.7459 43.2514 64.7459 42.9302H63.7459C63.7459 43.4411 63.8856 43.9054 64.1872 44.2932L64.9766 43.6793ZM64.7459 42.9302C64.7459 42.6072 64.8307 42.3972 64.9582 42.2515L64.2056 41.593C63.8851 41.9593 63.7459 42.4213 63.7459 42.9302H64.7459ZM64.9766 42.2292C65.0917 42.0811 65.2557 41.9902 65.5419 41.9902V40.9902C64.9961 40.9902 64.5201 41.1873 64.1872 41.6153L64.9766 42.2292ZM65.5419 41.9902H76.7259V40.9902H65.5419V41.9902ZM76.7259 41.9902C77.3816 41.9902 77.9791 41.8561 78.3755 41.4598L77.6683 40.7527C77.5527 40.8684 77.2862 40.9902 76.7259 40.9902V41.9902ZM78.3755 41.4598C78.7948 41.0405 78.9539 40.4381 78.9539 39.7622H77.9539C77.9539 40.3023 77.825 40.596 77.6683 40.7527L78.3755 41.4598ZM78.9539 39.7622V34.0502H77.9539V39.7622H78.9539ZM78.9539 34.0502C78.9539 33.3808 78.7974 32.7746 78.3541 32.3805L77.6897 33.1279C77.8224 33.2459 77.9539 33.5037 77.9539 34.0502H78.9539ZM78.3956 32.4221C78.0015 31.9787 77.3953 31.8222 76.7259 31.8222V32.8222C77.2725 32.8222 77.5303 32.9538 77.6482 33.0864L78.3956 32.4221ZM76.7259 31.8222H63.2859V32.8222H76.7259V31.8222ZM63.2859 31.8222C60.1061 31.8222 57.5464 32.5766 55.6691 34.1467L56.3107 34.9138C57.9534 33.5399 60.2577 32.8222 63.2859 32.8222V31.8222ZM55.6733 34.1433C53.7741 35.6971 52.8499 37.9329 52.8499 40.7702H53.8499C53.8499 38.1676 54.6856 36.2434 56.3065 34.9172L55.6733 34.1433ZM52.8499 40.7702V45.8102H53.8499V40.7702H52.8499ZM52.8499 45.8102C52.8499 48.5679 53.5386 50.6625 55.0405 51.9499L55.6913 51.1906C54.5052 50.174 53.8499 48.4286 53.8499 45.8102H52.8499ZM55.0449 51.9536C56.5088 53.1792 58.4109 53.9435 60.7192 54.2732L60.8606 53.2833C58.6889 52.973 56.975 52.2653 55.6869 51.1869L55.0449 51.9536ZM60.7206 54.2734L67.9206 55.2814L68.0592 54.2911L60.8592 53.2831L60.7206 54.2734ZM67.9515 55.2848C68.2704 55.3093 68.4207 55.41 68.5019 55.5182L69.3019 54.9182C68.9991 54.5145 68.5414 54.3272 68.0282 54.2877L67.9515 55.2848ZM68.5256 55.5475C68.634 55.6714 68.7379 55.9268 68.7379 56.4182H69.7379C69.7379 55.8217 69.6178 55.2771 69.2782 54.889L68.5256 55.5475ZM68.7379 56.4182C68.7379 56.6973 68.6592 56.9239 68.5072 57.1193L69.2966 57.7332C69.5926 57.3526 69.7379 56.9072 69.7379 56.4182H68.7379ZM68.5019 57.1262C68.4315 57.2201 68.3002 57.3102 67.9899 57.3102V58.3102C68.5116 58.3102 68.9883 58.1444 69.3019 57.7262L68.5019 57.1262ZM67.9899 57.3102H55.0779V58.3102H67.9899V57.3102ZM55.0779 57.3102C54.402 57.3102 53.7996 57.4694 53.3803 57.8887L54.0875 58.5958C54.2442 58.4391 54.5378 58.3102 55.0779 58.3102V57.3102ZM53.3803 57.8887C52.984 58.285 52.8499 58.8825 52.8499 59.5382H53.8499C53.8499 58.9779 53.9718 58.7115 54.0875 58.5958L53.3803 57.8887ZM52.8499 59.5382V65.1542H53.8499V59.5382H52.8499ZM52.8499 65.1542C52.8499 65.8174 52.9871 66.4107 53.3602 66.8304L54.1076 66.1661C53.9687 66.0098 53.8499 65.7071 53.8499 65.1542H52.8499ZM53.4017 66.8719C53.8214 67.245 54.4148 67.3822 55.0779 67.3822V66.3822C54.525 66.3822 54.2224 66.2634 54.0661 66.1245L53.4017 66.8719ZM55.0779 67.3822H70.2459V66.3822H55.0779V67.3822ZM73.6339 36.6422V37.1222H74.6339V36.6422H73.6339ZM74.1339 36.6222H63.4779V37.6222H74.1339V36.6222ZM63.4779 36.6222C62.0395 36.6222 60.8362 37.0185 59.9234 37.8583L60.6004 38.5942C61.2876 37.962 62.2283 37.6222 63.4779 37.6222V36.6222ZM59.9234 37.8583C59.017 38.6922 58.5619 39.7552 58.5619 41.0102H59.5619C59.5619 40.0253 59.9068 39.2323 60.6004 38.5942L59.9234 37.8583ZM58.5619 41.0102V44.9462H59.5619V41.0102H58.5619ZM58.5619 44.9462C58.5619 46.1051 58.7884 47.0598 59.3803 47.6518L60.0875 46.9447C59.7834 46.6406 59.5619 46.0274 59.5619 44.9462H58.5619ZM59.3803 47.6518C59.9135 48.185 60.6054 48.5124 61.4242 48.6548L61.5956 47.6696C60.9424 47.556 60.4503 47.3075 60.0875 46.9447L59.3803 47.6518ZM61.4101 48.6522L71.5381 50.7162L71.7377 49.7363L61.6097 47.6723L61.4101 48.6522ZM71.5398 50.7165C72.4103 50.8906 73.0981 51.2614 73.6274 51.8186L74.3524 51.1299C73.6657 50.407 72.7855 49.9459 71.736 49.736L71.5398 50.7165ZM73.6363 51.8278C74.1297 52.3212 74.4499 53.2983 74.4499 54.9302H75.4499C75.4499 53.2342 75.1301 51.9073 74.3435 51.1207L73.6363 51.8278ZM74.4499 54.9302V57.7142H75.4499V54.9302H74.4499ZM74.4499 57.7142C74.4499 58.995 74.0191 60.0305 73.1624 60.8587L73.8574 61.5777C74.9206 60.5499 75.4499 59.2495 75.4499 57.7142H74.4499ZM73.1687 60.8527C72.3225 61.6426 71.1595 62.0622 69.6219 62.0622V63.0622C71.3483 63.0622 72.7773 62.5859 73.8511 61.5838L73.1687 60.8527ZM69.6219 62.0622H57.6699V63.0622H69.6219V62.0622ZM58.1699 62.5622V62.0822H57.1699V62.5622H58.1699ZM57.6699 62.5822H69.6219V61.5822H57.6699V62.5822ZM69.6219 62.5822C71.187 62.5822 72.4876 62.1547 73.4656 61.2491L72.7862 60.5154C72.0362 61.2098 71.0008 61.5822 69.6219 61.5822V62.5822ZM73.4661 61.2486C74.4693 60.3171 74.9699 59.1259 74.9699 57.7142H73.9699C73.9699 58.8625 73.5745 59.7833 72.7857 60.5158L73.4661 61.2486ZM74.9699 57.7142V54.9302H73.9699V57.7142H74.9699ZM74.9699 54.9302C74.9699 53.4048 74.702 52.1993 74.0075 51.5047L73.3003 52.2118C73.6938 52.6052 73.9699 53.4477 73.9699 54.9302H74.9699ZM74.0276 51.5261C73.4323 50.8563 72.6265 50.4273 71.6467 50.2173L71.4371 51.1951C72.2493 51.3692 72.8515 51.7081 73.2802 52.1904L74.0276 51.5261ZM71.6417 50.2163L61.5137 48.1523L61.3141 49.1322L71.4421 51.1962L71.6417 50.2163ZM61.5083 48.1512C60.7492 48.0052 60.1472 47.7189 59.6807 47.3073L59.0191 48.0572C59.6406 48.6056 60.4146 48.9592 61.3195 49.1332L61.5083 48.1512ZM59.7035 47.3287C59.3371 46.9623 59.0819 46.2237 59.0819 44.9462H58.0819C58.0819 46.2928 58.3387 47.3781 58.9963 48.0358L59.7035 47.3287ZM59.0819 44.9462V41.0102H58.0819V44.9462H59.0819ZM59.0819 41.0102C59.0819 39.8621 59.4768 38.9615 60.2589 38.2632L59.5929 37.5173C58.583 38.4189 58.0819 39.5984 58.0819 41.0102H59.0819ZM60.2661 38.2566C61.0515 37.5274 62.1049 37.1422 63.4779 37.1422V36.1422C61.9069 36.1422 60.5923 36.5891 59.5857 37.5238L60.2661 38.2566ZM63.4779 37.1422H74.1339V36.1422H63.4779V37.1422Z" fill="#1D2021"/>
</g>
</svg>
