<svg width="740" height="251" viewBox="0 0 740 251" fill="none" xmlns="http://www.w3.org/2000/svg">
<g clip-path="url(#clip0_1_2)">
<path d="M56.06 215.91C56.06 215.91 12.44 195.33 12.44 156.26C12.44 117.19 65.81 100.05 65.81 54.68C65.81 9.30999 19.23 13.62 19.05 39.68C18.88 63.93 53.61 57.61 47.67 38.98C47.67 38.98 55.78 51.63 44.53 58.98C44.53 58.98 46.1 74.68 34.84 87.24C23.58 99.8 -1.28001 126.51 0.0299869 155.56C1.33999 184.61 17.59 203 56.06 215.91Z" fill="#1D2021"/>
<path d="M64.96 187.65C64.96 187.65 23.61 176.13 27.62 142.98C31.16 113.7 71.62 97.61 76.83 62.18C82.04 26.75 55.89 6.18 19.77 6.35C19.77 6.35 67.06 -15.29 104.4 21.35C104.4 21.35 105.62 13.5 111.03 10.88C114.297 9.32298 118.021 9.01358 121.5 10.01L131.81 4.6C131.81 4.6 134.08 4.08 132.69 6.87C131.3 9.66 126.73 19.26 126.73 19.26C126.73 19.26 126.56 50.84 104.57 75.26C82.58 99.68 59.57 109.86 52.92 127.61C46.17 145.61 53.27 155.88 62.69 166.7C62.69 166.7 40.36 159.02 45.59 128.31C42.5674 131.609 40.3491 135.563 39.1087 139.861C37.8683 144.16 37.6394 148.688 38.44 153.09C42.24 173.41 64.96 187.65 64.96 187.65Z" fill="#1D2021"/>
<path d="M23.81 144.37C23.81 144.37 17.81 186.26 64.96 202.13C57.8474 203.004 50.6302 201.979 44.0419 199.16C37.4535 196.341 31.729 191.828 27.45 186.08C12.09 166.01 23.81 144.37 23.81 144.37Z" fill="#1D2021"/>
<path d="M79.8 241.91L72.46 250.81V124.48L79.8 115.58V241.91Z" fill="#1D2021"/>
<path d="M92.01 227.6L84.68 236.51V110.17L92.01 101.27V227.6Z" fill="#1D2021"/>
<path d="M104.23 213.3L96.9 222.2V95.86L104.23 86.96V213.3Z" fill="#1D2021"/>
<path d="M136.19 158.57V153.64L144.31 152.43V96.43L136.19 95.26V90.32H162.65V95.26L154.65 96.47V152.47L162.65 153.86V158.61L136.19 158.57ZM171.97 158.57V153.64L179.28 152.88V115.57L173 113.57V108.26L185.65 106.43H185.87L187.98 108.22V116.51H188.07C188.3 116.13 188.86 115.37 189.73 114.25C190.746 112.973 191.903 111.816 193.18 110.8C194.738 109.538 196.448 108.477 198.27 107.64C200.298 106.695 202.513 106.22 204.75 106.25C205.319 106.239 205.887 106.276 206.45 106.36C206.848 106.419 207.24 106.516 207.62 106.65V117.65C207.408 117.519 207.18 117.418 206.94 117.35C206.552 117.233 206.158 117.137 205.76 117.06C205.287 116.967 204.777 116.887 204.23 116.82C203.657 116.738 203.079 116.698 202.5 116.7C199.755 116.619 197.014 116.956 194.37 117.7C192.576 118.243 190.874 119.052 189.32 120.1V152.93L201.52 153.78V158.62L171.97 158.57ZM213.41 158.57V153.64L220.8 152.88V115.57L214.53 113.57V108.26L228.2 106.43H228.43L230.8 108.22V152.97L238.07 153.69V158.62L213.41 158.57ZM224.35 97.9C223.533 97.907 222.723 97.7471 221.97 97.43C221.272 97.1311 220.645 96.6881 220.13 96.13C219.605 95.5536 219.21 94.8717 218.97 94.13C218.695 93.3427 218.556 92.5141 218.56 91.68C218.554 90.7527 218.699 89.8306 218.99 88.95C219.257 88.108 219.681 87.3242 220.24 86.64C220.813 85.9571 221.526 85.4048 222.33 85.02C223.243 84.6044 224.237 84.3994 225.24 84.42H225.29C226.186 84.4036 227.075 84.5881 227.89 84.96C228.606 85.297 229.246 85.7769 229.77 86.37C230.282 86.9575 230.679 87.6359 230.94 88.37C231.209 89.1208 231.344 89.9127 231.34 90.71C231.348 91.6662 231.206 92.6177 230.92 93.53C230.648 94.3682 230.205 95.1411 229.62 95.8C229.011 96.4573 228.267 96.9757 227.44 97.32C226.472 97.711 225.434 97.9015 224.39 97.88L224.35 97.9ZM246.81 155.7V143.95H253.17L255.01 150.59C255.363 151.158 255.838 151.639 256.4 152C257.129 152.502 257.911 152.924 258.73 153.26C259.699 153.653 260.704 153.951 261.73 154.15C262.865 154.381 264.021 154.495 265.18 154.49C266.73 154.534 268.276 154.328 269.76 153.88C270.805 153.563 271.768 153.02 272.58 152.29C273.253 151.664 273.741 150.865 273.99 149.98C274.247 149.1 274.375 148.187 274.37 147.27C274.386 146.167 274.118 145.079 273.59 144.11C272.977 143.063 272.161 142.148 271.19 141.42C269.899 140.439 268.508 139.597 267.04 138.91C265.347 138.09 263.347 137.23 261.04 136.33C258.867 135.507 256.766 134.504 254.76 133.33C253.128 132.384 251.648 131.197 250.37 129.81C249.224 128.55 248.346 127.07 247.79 125.46C247.213 123.702 246.932 121.86 246.96 120.01C246.932 118.058 247.418 116.134 248.37 114.43C249.346 112.739 250.677 111.279 252.27 110.15C254.053 108.892 256.043 107.958 258.15 107.39C260.535 106.719 263.002 106.383 265.48 106.39C267.189 106.38 268.896 106.491 270.59 106.72C272.15 106.95 273.59 107.22 274.81 107.53C276.03 107.84 277.16 108.16 278.1 108.53C279.04 108.9 279.8 109.12 280.37 109.3V120.51L274.37 120.46L272.37 114.68C271.772 113.71 270.888 112.948 269.84 112.5C268.276 111.776 266.562 111.433 264.84 111.5C263.491 111.444 262.142 111.595 260.84 111.95C259.861 112.212 258.945 112.672 258.15 113.3C257.485 113.832 256.959 114.519 256.62 115.3C256.289 116.074 256.122 116.908 256.13 117.75C256.058 119.134 256.406 120.508 257.13 121.69C257.846 122.733 258.768 123.618 259.84 124.29C261.049 125.054 262.337 125.688 263.68 126.18C265.11 126.71 266.58 127.31 268.07 127.97C270.13 128.87 272.097 129.81 273.97 130.79C275.75 131.718 277.412 132.856 278.92 134.18C280.339 135.425 281.504 136.933 282.35 138.62C283.243 140.491 283.682 142.547 283.63 144.62C283.66 146.753 283.209 148.865 282.31 150.8C281.427 152.661 280.11 154.283 278.47 155.53C276.639 156.91 274.562 157.928 272.35 158.53C269.697 159.246 266.957 159.582 264.21 159.53C262.536 159.525 260.864 159.391 259.21 159.13C257.48 158.86 255.81 158.53 254.21 158.13C252.738 157.781 251.286 157.354 249.86 156.85C248.58 156.47 247.54 156.06 246.81 155.7ZM292.28 158.57V153.64L297.71 152.88V90.32L290.35 89.52V85.26L305.24 83.26H305.46L307.66 84.83V105.5L307.3 113.61C308.291 112.749 309.34 111.957 310.44 111.24C311.778 110.351 313.186 109.572 314.65 108.91C316.259 108.169 317.933 107.577 319.65 107.14C321.442 106.67 323.287 106.435 325.14 106.44C327.592 106.36 330.035 106.778 332.32 107.67C334.171 108.47 335.739 109.808 336.82 111.51C338.054 113.534 338.858 115.791 339.18 118.14C339.664 121.316 339.888 124.527 339.85 127.74V152.9L346.44 153.66V158.59H323.94V153.75L329.94 152.94V127.68C329.959 125.582 329.845 123.484 329.6 121.4C329.449 119.833 329.001 118.309 328.28 116.91C327.649 115.744 326.67 114.804 325.48 114.22C323.973 113.57 322.34 113.266 320.7 113.33C318.408 113.346 316.134 113.724 313.96 114.45C311.73 115.146 309.632 116.207 307.75 117.59V152.88L314.25 153.64V158.57H292.28ZM353.53 158.57V153.64L361.02 152.38V96.47L353.81 95.26V90.32H378.92V95.26L371.25 96.47V120.59H402.86V96.47L395.64 95.26V90.32H420.39V95.26L413.22 96.47V152.47L420.39 153.68V158.61H395.73V153.68L402.9 152.47V126.47H371.29V152.47L378.96 153.68V158.61L353.53 158.57ZM451.87 159.6C448.431 159.667 445.019 158.984 441.87 157.6C439.09 156.341 436.642 154.451 434.72 152.08C432.732 149.58 431.267 146.707 430.41 143.63C429.427 140.122 428.945 136.493 428.98 132.85C428.952 129.154 429.572 125.482 430.81 122C431.911 118.891 433.61 116.027 435.81 113.57C437.932 111.24 440.522 109.383 443.41 108.12C446.442 106.819 449.711 106.165 453.01 106.2C458.657 106.2 463.037 107.73 466.15 110.79C469.263 113.85 470.95 118.387 471.21 124.4V129.49C471.17 130.777 471.019 132.059 470.76 133.32H439.76V133.59C439.802 136.565 440.301 139.517 441.24 142.34C441.973 144.522 443.124 146.54 444.63 148.28C445.934 149.759 447.568 150.911 449.4 151.64C451.187 152.343 453.09 152.702 455.01 152.7C456.318 152.697 457.623 152.577 458.91 152.34C460.191 152.105 461.457 151.791 462.7 151.4C463.838 151.039 464.944 150.588 466.01 150.05C466.885 149.621 467.719 149.112 468.5 148.53L470.39 152.92C469.393 153.884 468.285 154.727 467.09 155.43C465.68 156.278 464.194 156.991 462.65 157.56C460.965 158.19 459.233 158.685 457.47 159.04C455.627 159.417 453.751 159.604 451.87 159.6ZM450.75 111.6C449.323 111.587 447.906 111.852 446.58 112.38C445.231 112.951 444.061 113.873 443.19 115.05C442.1 116.559 441.293 118.253 440.81 120.05C440.128 122.627 439.745 125.275 439.67 127.94H460.48C460.54 127.35 460.57 126.72 460.59 126.06C460.61 125.4 460.59 124.79 460.59 124.22C460.596 122.604 460.415 120.994 460.05 119.42C459.728 117.996 459.152 116.641 458.35 115.42C457.588 114.266 456.559 113.312 455.35 112.64C453.933 111.898 452.349 111.533 450.75 111.58V111.6ZM478.91 158.57V153.64L486.22 152.88V115.57L479.94 113.57V108.26L492.58 106.43H492.81L494.91 108.22V116.51H495C495.24 116.13 495.79 115.37 496.66 114.25C497.679 112.976 498.836 111.819 500.11 110.8C501.669 109.54 503.379 108.479 505.2 107.64C507.228 106.697 509.443 106.222 511.68 106.25C512.249 106.239 512.817 106.275 513.38 106.36C513.778 106.419 514.17 106.516 514.55 106.65V117.65C514.342 117.518 514.117 117.417 513.88 117.35C513.55 117.25 513.15 117.15 512.69 117.06C512.23 116.97 511.69 116.89 511.16 116.82C510.59 116.738 510.015 116.698 509.44 116.7C506.692 116.619 503.947 116.956 501.3 117.7C499.506 118.243 497.804 119.052 496.25 120.1V152.93L508.45 153.78V158.62L478.91 158.57ZM520.34 158.57V153.64L527.74 152.88V115.57L521.46 113.57V108.26L535.14 106.43H535.36L537.74 108.22V152.97L545 153.69V158.62L520.34 158.57ZM531.28 97.9C530.463 97.907 529.653 97.7471 528.9 97.43C528.203 97.1285 527.577 96.6859 527.06 96.13C526.542 95.5484 526.148 94.8681 525.9 94.13C525.628 93.3421 525.493 92.5135 525.5 91.68C525.496 90.7536 525.637 89.8323 525.92 88.95C526.19 88.1073 526.618 87.3234 527.18 86.64C527.749 85.9574 528.459 85.4049 529.26 85.02C530.176 84.6036 531.174 84.3985 532.18 84.42C533.076 84.4008 533.965 84.5854 534.78 84.96C535.499 85.2968 536.142 85.7766 536.67 86.37C537.175 86.9605 537.568 87.6383 537.83 88.37C538.099 89.1208 538.234 89.9127 538.23 90.71C538.238 91.6662 538.096 92.6177 537.81 93.53C537.538 94.3682 537.095 95.1411 536.51 95.8C535.903 96.4595 535.159 96.9783 534.33 97.32C533.377 97.7052 532.357 97.8956 531.33 97.88L531.28 97.9ZM557.91 149.02V114.02H551.41V109.81C552.34 109.51 553.26 109.2 554.17 108.87C554.866 108.639 555.536 108.338 556.17 107.97C557.293 107.096 558.16 105.935 558.68 104.61C558.92 104.07 559.22 103.36 559.57 102.48C559.92 101.6 560.28 100.69 560.63 99.76C560.98 98.83 561.28 97.96 561.57 97.12C561.86 96.28 562.06 95.62 562.18 95.12H567.91V107.49H582.91V113.99H567.91V140.86C567.91 143.527 567.95 145.603 568.03 147.09C568.029 148.226 568.239 149.351 568.65 150.41C568.786 150.736 568.998 151.026 569.267 151.255C569.536 151.485 569.856 151.647 570.2 151.73C571.131 151.922 572.08 152.005 573.03 151.98C573.936 151.978 574.841 151.917 575.74 151.8C576.69 151.68 577.6 151.54 578.5 151.37C579.4 151.2 580.22 151.03 580.97 150.84C581.594 150.682 582.208 150.488 582.81 150.26L584.33 154.66C583.391 155.323 582.386 155.886 581.33 156.34C579.998 156.956 578.629 157.487 577.23 157.93C575.722 158.419 574.186 158.817 572.63 159.12C571.155 159.42 569.655 159.578 568.15 159.59H568.06C566.622 159.61 565.188 159.428 563.8 159.05C562.602 158.729 561.501 158.122 560.59 157.28C559.668 156.368 558.982 155.246 558.59 154.01C558.087 152.396 557.857 150.71 557.91 149.02ZM589.53 145.12C589.493 143.133 589.907 141.164 590.74 139.36C591.547 137.669 592.675 136.151 594.06 134.89C595.553 133.554 597.238 132.452 599.06 131.62C601.033 130.696 603.089 129.959 605.2 129.42C607.459 128.848 609.754 128.43 612.07 128.17C614.44 127.9 616.8 127.74 619.13 127.68V125.26C619.157 123.476 619.006 121.694 618.68 119.94C618.449 118.654 617.918 117.441 617.13 116.4C616.372 115.455 615.348 114.758 614.19 114.4C612.678 113.957 611.106 113.751 609.53 113.79C607.906 113.791 606.286 113.942 604.69 114.24C601.711 114.792 598.791 115.625 595.97 116.73C594.73 117.22 593.69 117.68 592.85 118.1L590.85 113.79C591.78 113.006 592.785 112.316 593.85 111.73C595.487 110.803 597.188 109.994 598.94 109.31C601.001 108.507 603.112 107.839 605.26 107.31C607.466 106.748 609.734 106.463 612.01 106.46C614.711 106.412 617.404 106.749 620.01 107.46C622.011 108.007 623.83 109.077 625.28 110.56C626.701 112.118 627.696 114.015 628.17 116.07C628.809 118.782 629.104 121.564 629.05 124.35V153.58H634.61V157.93L632.61 158.45C631.823 158.643 630.993 158.823 630.12 158.99C629.25 159.15 628.37 159.29 627.47 159.41C626.625 159.527 625.773 159.587 624.92 159.59C624.192 159.594 623.464 159.557 622.74 159.48C622.197 159.427 621.678 159.226 621.24 158.9C620.814 158.525 620.511 158.03 620.37 157.48C620.148 156.649 620.05 155.79 620.08 154.93V153.26C619.69 153.62 619.08 154.15 618.17 154.85C617.148 155.644 616.061 156.35 614.92 156.96C613.514 157.709 612.041 158.325 610.52 158.8C608.807 159.331 607.023 159.594 605.23 159.58C603.237 159.588 601.253 159.309 599.34 158.75C597.535 158.235 595.854 157.357 594.4 156.17C592.937 154.951 591.773 153.411 591 151.67C590.034 149.621 589.532 147.385 589.53 145.12ZM608.9 152.74C609.653 152.728 610.403 152.644 611.14 152.49C612.051 152.319 612.949 152.088 613.83 151.8C614.776 151.495 615.699 151.121 616.59 150.68C617.459 150.256 618.292 149.761 619.08 149.2V132.7C616.052 132.635 613.029 132.951 610.08 133.64C608.025 134.113 606.073 134.957 604.32 136.13C603.025 137.016 601.989 138.231 601.32 139.65C600.725 140.942 600.417 142.348 600.42 143.77C600.384 145.188 600.604 146.6 601.07 147.94C601.444 148.992 602.057 149.944 602.86 150.72C603.631 151.445 604.564 151.976 605.58 152.27C606.658 152.585 607.777 152.743 608.9 152.74ZM641.68 168.61C641.656 167.12 641.907 165.639 642.42 164.24C642.884 162.986 643.534 161.809 644.35 160.75C645.117 159.731 646.03 158.832 647.06 158.08C647.997 157.37 649.002 156.753 650.06 156.24C648.652 155.458 647.457 154.342 646.58 152.99C645.729 151.577 645.302 149.949 645.35 148.3C645.333 147.172 645.509 146.049 645.87 144.98C646.205 144.009 646.687 143.095 647.3 142.27C647.928 141.431 648.657 140.672 649.47 140.01C650.354 139.281 651.286 138.613 652.26 138.01C649.491 136.788 647.153 134.764 645.549 132.198C643.944 129.632 643.147 126.644 643.26 123.62C643.207 121.04 643.824 118.491 645.05 116.22C646.231 114.088 647.85 112.231 649.8 110.77C651.847 109.258 654.136 108.105 656.57 107.36C659.099 106.574 661.732 106.176 664.38 106.18C667.334 106.147 670.279 106.524 673.13 107.3C675.574 107.95 677.841 109.143 679.76 110.79C680.272 110.304 680.813 109.85 681.38 109.43C682.131 108.862 682.923 108.351 683.75 107.9C684.706 107.384 685.711 106.965 686.75 106.65C687.896 106.295 689.09 106.119 690.29 106.13H692.08V114.88H682.85C683.897 117.063 684.417 119.46 684.37 121.88C684.403 124.48 683.828 127.052 682.69 129.39C681.591 131.62 680.042 133.598 678.14 135.2C676.148 136.853 673.866 138.121 671.41 138.94C668.769 139.834 665.998 140.284 663.21 140.27C661.101 140.277 658.996 140.066 656.93 139.64C656.038 140.267 655.265 141.049 654.65 141.95C654.03 142.9 653.716 144.016 653.75 145.15C653.703 146.134 653.942 147.11 654.44 147.96C654.933 148.683 655.629 149.243 656.44 149.57C657.472 149.981 658.562 150.23 659.67 150.31C660.95 150.43 662.4 150.49 664.02 150.49H673.79C679.79 150.49 684.163 151.633 686.91 153.92C689.657 156.207 691.067 159.653 691.14 164.26C691.14 166.823 690.475 169.342 689.21 171.57C687.854 173.951 686.015 176.022 683.81 177.65C681.299 179.494 678.492 180.897 675.51 181.8C672.072 182.845 668.494 183.357 664.9 183.32C661.486 183.375 658.079 183.019 654.75 182.26C652.183 181.68 649.735 180.665 647.51 179.26C645.684 178.108 644.181 176.511 643.14 174.62C642.151 172.773 641.649 170.705 641.68 168.61ZM662.39 158.75C660.87 158.75 659.39 158.68 658.02 158.55C656.709 158.426 655.411 158.192 654.14 157.85C653.356 158.871 652.717 159.995 652.24 161.19C651.642 162.756 651.36 164.425 651.41 166.1C651.41 169.78 652.53 172.62 654.77 174.62C657.01 176.62 660.613 177.62 665.58 177.62H665.67C667.722 177.624 669.768 177.399 671.77 176.95C673.573 176.552 675.304 175.878 676.9 174.95C678.314 174.13 679.518 172.993 680.42 171.63C681.307 170.233 681.76 168.604 681.72 166.95C681.745 165.703 681.6 164.458 681.29 163.25C681.029 162.242 680.451 161.344 679.64 160.69C678.625 159.933 677.447 159.426 676.2 159.21C674.311 158.861 672.391 158.703 670.47 158.74L662.39 158.75ZM664.39 134.98C665.939 135.028 667.481 134.756 668.92 134.18C670.116 133.681 671.153 132.865 671.92 131.82C672.714 130.693 673.263 129.412 673.53 128.06C673.878 126.417 674.046 124.74 674.03 123.06C674.03 119.06 673.213 116.137 671.58 114.29C669.95 112.42 667.38 111.49 663.85 111.49C662.458 111.472 661.07 111.654 659.73 112.03C658.545 112.357 657.46 112.972 656.57 113.82C655.643 114.763 654.957 115.916 654.57 117.18C654.046 118.893 653.803 120.679 653.85 122.47C653.842 124.061 654.016 125.648 654.37 127.2C654.676 128.633 655.26 129.992 656.09 131.2C656.925 132.375 658.043 133.321 659.34 133.95C660.916 134.674 662.637 135.027 664.37 134.98H664.39ZM720.06 159.6C716.621 159.666 713.209 158.984 710.06 157.6C707.282 156.338 704.834 154.448 702.91 152.08C700.925 149.578 699.46 146.705 698.6 143.63C697.617 140.122 697.135 136.493 697.17 132.85C697.126 129.147 697.732 125.464 698.96 121.97C700.065 118.863 701.763 115.999 703.96 113.54C706.082 111.21 708.672 109.353 711.56 108.09C714.592 106.789 717.861 106.135 721.16 106.17C726.813 106.17 731.193 107.7 734.3 110.76C737.407 113.82 739.097 118.357 739.37 124.37C739.37 126.31 739.37 128.01 739.32 129.46C739.28 130.747 739.129 132.029 738.87 133.29H707.87V133.56C707.911 136.535 708.411 139.487 709.35 142.31C710.083 144.492 711.234 146.51 712.74 148.25C714.044 149.729 715.678 150.881 717.51 151.61C719.297 152.312 721.2 152.671 723.12 152.67C724.428 152.667 725.733 152.547 727.02 152.31C728.301 152.075 729.567 151.761 730.81 151.37C731.95 151.007 733.06 150.556 734.13 150.02C735.001 149.589 735.831 149.08 736.61 148.5L738.5 152.89C737.503 153.854 736.395 154.697 735.2 155.4C733.79 156.248 732.304 156.961 730.76 157.53C729.075 158.16 727.343 158.655 725.58 159.01C723.765 159.392 721.915 159.589 720.06 159.6ZM718.94 111.6C717.513 111.587 716.096 111.852 714.77 112.38C713.421 112.951 712.251 113.873 711.38 115.05C710.29 116.557 709.486 118.252 709.01 120.05C708.319 122.626 707.933 125.274 707.86 127.94H728.67C728.73 127.35 728.76 126.72 728.78 126.06C728.8 125.4 728.78 124.79 728.78 124.22C728.786 122.604 728.605 120.994 728.24 119.42C727.922 117.994 727.345 116.639 726.54 115.42C725.778 114.266 724.749 113.312 723.54 112.64C722.123 111.898 720.539 111.533 718.94 111.58V111.6Z" fill="#1D2021"/>
</g>
<defs>
<clipPath id="clip0_1_2">
<rect width="739.4" height="250.81" fill="white"/>
</clipPath>
</defs>
</svg>
